<svg width="300" height="300" viewBox="0 0 300 300" fill="none" xmlns="http://www.w3.org/2000/svg">
<path d="M290 211.051C288.669 220.186 287.249 229.275 283.521 237.848C273.522 260.844 256.803 276.502 233.049 284.705C221.82 288.584 210.244 290.055 198.583 288.73C180.033 286.625 163.522 279.399 149.834 266.43C136.247 253.563 127.899 237.837 124.923 219.349C124.317 215.599 124.25 211.759 123.947 207.958C123.795 206.055 124.671 205.285 126.591 205.291C142.373 205.319 158.149 205.313 173.93 205.274C175.575 205.269 176.26 205.948 176.429 207.548C177.529 218.03 182.391 226.277 191.38 231.858C205.438 240.582 222.337 235.872 231.365 223.504C235.126 218.35 237.22 212.427 237.187 206.285C237.147 199.014 234.621 192.204 229.557 186.618C222.758 179.117 214.314 175.676 204.197 175.698C168.159 175.782 132.115 175.468 96.0773 175.855C81.1378 176.018 67.2312 173.048 54.1555 166.042C39.2609 158.064 28.0772 146.437 20.0095 131.564C14.7995 121.958 12.2843 111.555 10.527 101.034C9.56698 95.2793 10.0386 89.0755 10.9818 83.2535C12.5762 73.4173 15.1251 63.7776 19.9422 54.8621C28.5881 38.8334 40.9171 26.7346 57.2715 18.6557C65.3167 14.6808 73.7999 12.2329 82.6255 11.1494C88.7732 10.3971 95.1622 9.48194 101.192 10.3578C111.657 11.8792 121.993 14.3664 131.543 19.4697C155.392 32.2029 169.899 51.7799 175.16 78.2119C175.991 82.3889 176.137 86.7007 176.502 90.9619C176.681 93.0223 175.632 94.0722 173.504 94.0666C157.913 94.0498 142.317 94.0498 126.726 94.0666C124.721 94.0666 124.087 93.129 123.896 91.1528C122.633 77.7908 112.488 66.6016 99.968 63.7551C83.5014 60.0104 66.5799 71.587 63.6942 88.6544C61.6338 100.832 68.8032 114.665 80.8402 120.358C85.3709 122.503 90.115 123.62 95.1678 123.615C134.103 123.581 173.038 123.491 211.973 123.665C224.728 123.721 236.552 127.82 247.601 133.995C265.252 143.854 277.733 158.395 284.481 177.377C287.227 185.102 288.215 193.462 290 201.529C290 204.702 290 207.879 290 211.051Z" fill="white"/>
<path d="M263.624 93.5059C256.062 93.5059 248.499 93.461 240.943 93.534C238.753 93.5564 237.799 92.7648 237.518 90.5135C235.682 75.7142 225.953 65.4794 211.294 62.7509C210.468 62.5993 209.643 62.4028 208.812 62.3242C207.06 62.1614 206.449 61.1733 206.454 59.5002C206.477 44.1003 206.465 28.6947 206.465 13.2947C206.465 11.4196 207.302 10.6167 209.256 10.7908C221.697 11.8687 233.723 14.2941 244.929 20.234C260.155 28.3073 271.754 39.8615 279.883 55.0088C285.868 66.1587 288.35 78.207 289.315 90.6707C289.461 92.5571 288.793 93.5733 286.587 93.5396C278.934 93.4329 271.282 93.4947 263.63 93.4947C263.624 93.5003 263.624 93.5059 263.624 93.5059Z" fill="white"/>
<path d="M36.8355 205.735C44.4934 205.735 52.1456 205.768 59.8035 205.712C61.7292 205.695 62.2288 206.695 62.7004 208.362C63.9131 212.64 64.8676 217.115 66.8943 221.011C71.7675 230.398 80.0766 235.254 90.362 236.714C93.2309 237.124 94.0113 238.258 93.9888 241.048C93.8597 255.707 93.927 270.372 93.927 285.031C93.927 288.506 93.3937 288.899 89.9802 288.332C84.2087 287.366 78.3867 286.687 72.6546 285.542C63.7447 283.762 55.7556 279.725 48.2156 274.79C33.4388 265.134 22.9065 251.94 16.6746 235.513C14.5187 229.831 13.6541 223.65 12.3179 217.671C11.7116 214.959 11.4028 212.185 10.9593 209.44C10.4877 206.487 11.2232 205.746 14.1426 205.768C21.705 205.83 29.2674 205.791 36.8299 205.791C36.8355 205.768 36.8355 205.751 36.8355 205.735Z" fill="white"/>
</svg>
