<svg width="360" height="100" viewBox="0 0 360 100" fill="none" xmlns="http://www.w3.org/2000/svg">
<path d="M297.556 98.2307C296.474 98.2307 295.934 97.6899 295.934 96.6083V3.24546C295.934 2.16385 296.474 1.62305 297.556 1.62305H323.367C335.658 1.62305 344.803 4.22875 350.801 9.44015C356.897 14.6516 359.945 22.272 359.945 32.3015C359.945 42.331 356.848 49.9515 350.653 55.1629C344.557 60.3743 335.462 62.98 323.367 62.98H310.83V96.6083C310.83 97.6899 310.29 98.2307 309.208 98.2307H297.556ZM310.83 50.4431H323.072C330.644 50.4431 336.199 49.0173 339.739 46.1658C343.279 43.3143 345.049 38.8404 345.049 32.744C345.049 26.2543 343.23 21.5837 339.591 18.7322C336.052 15.7823 330.496 14.3074 322.925 14.3074H310.83V50.4431Z" fill="white"/>
<path d="M226.547 98.2307C225.465 98.2307 224.924 97.6899 224.924 96.6083V3.24546C224.924 2.16385 225.465 1.62305 226.547 1.62305H238.346C239.329 1.62305 239.821 2.16385 239.821 3.24546V84.9564H279.644C280.726 84.9564 281.267 85.4972 281.267 86.5788V96.6083C281.267 97.6899 280.726 98.2307 279.644 98.2307H226.547Z" fill="white"/>
<path d="M170.011 100C161.948 100 155.311 98.8692 150.099 96.6077C144.986 94.2478 141.25 91.003 138.89 86.8732C136.628 82.645 135.694 77.6795 136.087 71.9764C136.186 70.3048 136.825 69.469 138.005 69.469H149.362C150.542 69.469 151.132 70.2065 151.132 71.6814C151.132 77.0895 152.754 81.0226 155.999 83.4808C159.244 85.939 164.258 87.1681 171.043 87.1681C177.533 87.1681 182.4 86.0374 185.645 83.7758C188.988 81.5143 190.66 78.0728 190.66 73.4513C190.66 71.1898 190.266 69.2724 189.48 67.6991C188.791 66.0275 187.513 64.5526 185.645 63.2743C183.777 61.9961 181.318 60.7178 178.27 59.4395L156.589 50.4425C151.967 48.4759 148.231 46.3127 145.379 43.9528C142.626 41.5929 140.611 38.8889 139.332 35.8407C138.152 32.7925 137.562 29.3019 137.562 25.3687C137.661 17.1091 140.414 10.8161 145.822 6.48967C151.328 2.16323 159.342 0 169.863 0C177.14 0 183.383 1.03245 188.595 3.09734C193.905 5.16224 197.838 8.21043 200.394 12.2419C203.049 16.2734 204.131 21.2389 203.639 27.1386C203.442 28.9086 202.852 29.7935 201.869 29.7935H190.365C189.873 29.7935 189.48 29.5969 189.185 29.2035C188.988 28.8102 188.939 28.1219 189.037 27.1386C189.332 22.6155 187.759 19.0757 184.317 16.5192C180.876 13.9626 175.96 12.6844 169.568 12.6844C163.964 12.6844 159.735 13.7168 156.884 15.7817C154.032 17.7483 152.557 20.7473 152.459 24.7788C152.459 26.942 152.852 28.8102 153.639 30.3835C154.426 31.9567 155.753 33.4317 157.621 34.8083C159.49 36.1849 162.046 37.5615 165.291 38.9381L186.677 47.9351C191.299 49.8033 194.986 51.9174 197.739 54.2773C200.591 56.6372 202.607 59.3412 203.787 62.3894C204.966 65.4376 205.556 69.1249 205.556 73.4513C205.556 81.8092 202.705 88.3481 197.002 93.0678C191.299 97.6893 182.302 100 170.011 100Z" fill="white"/>
<path d="M100.284 72.0081C99.8076 75.2796 99.2989 78.5351 97.9637 81.6056C94.3825 89.8418 88.3943 95.4499 79.8867 98.3877C75.8651 99.7772 71.7188 100.304 67.5424 99.8294C60.8987 99.0754 54.985 96.4875 50.0826 91.8426C45.2165 87.2338 42.2265 81.6016 41.1607 74.98C40.9436 73.6368 40.9194 72.2614 40.8109 70.9001C40.7566 70.2185 41.0703 69.943 41.7579 69.945C47.4103 69.955 53.0606 69.953 58.713 69.939C59.3021 69.9369 59.5475 70.1803 59.6078 70.7533C60.0019 74.5075 61.7432 77.4613 64.9625 79.4601C69.9976 82.5848 76.0501 80.8978 79.2834 76.468C80.6306 74.6221 81.3807 72.5007 81.3686 70.3009C81.3545 67.6969 80.4497 65.2578 78.6359 63.2571C76.2009 60.5707 73.1766 59.338 69.5532 59.3461C56.6459 59.3762 43.7366 59.2636 30.8293 59.4024C25.4785 59.4607 20.4978 58.397 15.8147 55.8875C10.48 53.0302 6.4745 48.8658 3.58499 43.5392C1.71897 40.0987 0.818135 36.3727 0.188756 32.6045C-0.15509 30.5434 0.0138167 28.3215 0.35163 26.2363C0.922697 22.7134 1.8356 19.2609 3.56086 16.0677C6.65749 10.3269 11.0732 5.99363 16.9306 3.10009C19.8121 1.67645 22.8504 0.799742 26.0114 0.411658C28.2132 0.142211 30.5015 -0.185548 32.6611 0.128136C36.4092 0.673061 40.1111 1.56384 43.5315 3.39166C52.0733 7.95214 57.2692 14.9638 59.1533 24.4306C59.4509 25.9266 59.5032 27.4709 59.6339 28.9971C59.6983 29.7351 59.3222 30.1111 58.5602 30.1091C52.9762 30.1031 47.3902 30.1031 41.8062 30.1091C41.0883 30.1091 40.8611 29.7733 40.7928 29.0655C40.3403 24.2798 36.7068 20.2723 32.2227 19.2528C26.3251 17.9116 20.2645 22.0579 19.231 28.1707C18.493 32.5321 21.0608 37.4867 25.372 39.5257C26.9947 40.2938 28.6938 40.6939 30.5035 40.6919C44.4484 40.6799 58.3933 40.6477 72.3381 40.71C76.9067 40.7301 81.1414 42.198 85.0986 44.4099C91.4206 47.9408 95.8906 53.1488 98.3076 59.9473C99.2908 62.7142 99.6447 65.7082 100.284 68.5978C100.284 69.7339 100.284 70.872 100.284 72.0081Z" fill="white"/>
<path d="M90.8373 29.9078C88.1287 29.9078 85.4202 29.8917 82.7137 29.9178C81.9295 29.9259 81.5876 29.6424 81.4871 28.836C80.8295 23.5356 77.3448 19.8699 72.0946 18.8926C71.7991 18.8383 71.5035 18.768 71.2059 18.7398C70.5785 18.6815 70.3593 18.3276 70.3613 17.7284C70.3694 12.2128 70.3654 6.69515 70.3654 1.17953C70.3654 0.507928 70.665 0.220385 71.3647 0.282719C75.8207 0.668792 80.1278 1.53746 84.1413 3.66488C89.5946 6.5564 93.7489 10.6946 96.6605 16.1197C98.8041 20.1132 99.6928 24.4284 100.039 28.8923C100.091 29.568 99.8517 29.9319 99.0614 29.9198C96.3207 29.8816 93.58 29.9038 90.8393 29.9038C90.8373 29.9058 90.8373 29.9078 90.8373 29.9078Z" fill="white"/>
<path d="M9.6113 70.1038C12.354 70.1038 15.0947 70.1159 17.8375 70.0958C18.5272 70.0897 18.7061 70.4477 18.875 71.0449C19.3094 72.5771 19.6512 74.1797 20.3771 75.5752C22.1225 78.9372 25.0985 80.6766 28.7822 81.1994C29.8097 81.3462 30.0892 81.7524 30.0812 82.7517C30.035 88.0019 30.0591 93.2541 30.0591 98.5043C30.0591 99.749 29.8681 99.8897 28.6455 99.6867C26.5784 99.3408 24.4932 99.0975 22.4402 98.6873C19.249 98.0499 16.3877 96.6041 13.6872 94.8366C8.39477 91.378 4.62251 86.6527 2.39053 80.7691C1.61838 78.7342 1.30872 76.5203 0.830153 74.3788C0.612987 73.4076 0.502393 72.4142 0.34354 71.4309C0.174633 70.3733 0.438047 70.1078 1.48366 70.1159C4.1922 70.138 6.90075 70.1239 9.60929 70.1239C9.6113 70.1159 9.6113 70.1099 9.6113 70.1038Z" fill="white"/>
</svg>
