<svg width="300" height="300" viewBox="0 0 300 300" fill="none" xmlns="http://www.w3.org/2000/svg">
<path fill-rule="evenodd" clip-rule="evenodd" d="M279.964 290.087H172.562C172.061 289.817 171.534 289.599 170.99 289.434C149.167 285.07 133.447 269.443 130.26 247.47C129.332 241.098 129.434 234.576 129.536 228.057V228.057V228.057C129.58 225.241 129.624 222.426 129.585 219.625C129.542 216.716 129.556 213.807 129.57 210.857V210.857L129.57 210.854C129.578 209.366 129.585 207.866 129.585 206.352H179.891V239.466H239.471V179.533H59.6675C38.7785 179.533 19.605 165.787 12.8215 145.932C12.119 143.869 11.4984 141.779 10.8774 139.687C10.5973 138.744 10.317 137.8 10.0292 136.858V20.1524C13.4676 12.45 19.361 9.91597 27.7453 10.0021C52.6165 10.2585 77.4915 10.2174 102.365 10.1762C111.613 10.1609 120.861 10.1456 130.109 10.1456C154.515 10.1456 176.625 29.4842 178.922 53.7542C179.639 61.3329 179.555 68.9901 179.471 76.6458V76.6462V76.6467C179.434 80.0996 179.396 83.5523 179.431 86.9973V93.7664H128.81V60.7459H60.6151V129.077H65.482H239.794C242.533 129.078 245.268 129.277 247.978 129.673C271.415 133.104 289.971 154.589 289.964 178.213C289.964 210.788 289.976 243.361 290 275.932C290 280.16 288.614 283.684 285.542 286.427C284.405 287.453 283.061 288.242 281.718 289.029L281.716 289.03C281.126 289.376 280.536 289.722 279.964 290.087ZM10.0287 206.313H60.2773V239.563H93.8218V290.091H20.0497C15.5559 288.123 11.9679 284.535 10 280.042L10.0287 206.313ZM239.664 93.8636H289.963V89.9587V24.5062C289.963 15.8922 284.221 10.1495 275.657 10.1495H209.135C208.338 10.1495 207.541 10.1978 206.737 10.2466C206.382 10.2682 206.026 10.2898 205.668 10.3074V60.5559H239.664V93.8636Z" fill="black"/>
</svg>
