<svg width="864" height="378" viewBox="0 0 864 378" fill="none" xmlns="http://www.w3.org/2000/svg">
<path d="M448.46 273.84C444.633 273.84 441.483 273.303 439.01 272.23C436.583 271.11 434.81 269.57 433.69 267.61C432.617 265.603 432.173 263.247 432.36 260.54C432.407 259.747 432.71 259.35 433.27 259.35H438.66C439.22 259.35 439.5 259.7 439.5 260.4C439.5 262.967 440.27 264.833 441.81 266C443.35 267.167 445.73 267.75 448.95 267.75C452.03 267.75 454.34 267.213 455.88 266.14C457.467 265.067 458.26 263.433 458.26 261.24C458.26 260.167 458.073 259.257 457.7 258.51C457.373 257.717 456.767 257.017 455.88 256.41C454.993 255.803 453.827 255.197 452.38 254.59L442.09 250.32C439.897 249.387 438.123 248.36 436.77 247.24C435.463 246.12 434.507 244.837 433.9 243.39C433.34 241.943 433.06 240.287 433.06 238.42C433.107 234.5 434.413 231.513 436.98 229.46C439.593 227.407 443.397 226.38 448.39 226.38C451.843 226.38 454.807 226.87 457.28 227.85C459.8 228.83 461.667 230.277 462.88 232.19C464.14 234.103 464.653 236.46 464.42 239.26C464.327 240.1 464.047 240.52 463.58 240.52H458.12C457.887 240.52 457.7 240.427 457.56 240.24C457.467 240.053 457.443 239.727 457.49 239.26C457.63 237.113 456.883 235.433 455.25 234.22C453.617 233.007 451.283 232.4 448.25 232.4C445.59 232.4 443.583 232.89 442.23 233.87C440.877 234.803 440.177 236.227 440.13 238.14C440.13 239.167 440.317 240.053 440.69 240.8C441.063 241.547 441.693 242.247 442.58 242.9C443.467 243.553 444.68 244.207 446.22 244.86L456.37 249.13C458.563 250.017 460.313 251.02 461.62 252.14C462.973 253.26 463.93 254.543 464.49 255.99C465.05 257.437 465.33 259.187 465.33 261.24C465.33 265.207 463.977 268.31 461.27 270.55C458.563 272.743 454.293 273.84 448.46 273.84ZM497.132 273.84C494.099 273.84 491.789 272.86 490.202 270.9C488.615 268.893 487.822 266 487.822 262.22V239.47C487.822 238.957 488.079 238.7 488.592 238.7H494.052C494.565 238.7 494.822 238.957 494.822 239.47V261.45C494.822 263.597 495.195 265.183 495.942 266.21C496.689 267.237 497.855 267.75 499.442 267.75C501.122 267.75 502.779 267.237 504.412 266.21C506.092 265.137 508.099 263.41 510.432 261.03V266.91C509.032 268.357 507.609 269.593 506.162 270.62C504.715 271.647 503.245 272.44 501.752 273C500.259 273.56 498.719 273.84 497.132 273.84ZM511.062 273C510.782 273 510.572 272.953 510.432 272.86C510.292 272.72 510.199 272.533 510.152 272.3C510.012 271.413 509.895 270.503 509.802 269.57C509.709 268.637 509.639 267.68 509.592 266.7L509.102 263.48V239.47C509.102 238.957 509.359 238.7 509.872 238.7H515.332C515.845 238.7 516.102 238.957 516.102 239.47V264.39C516.102 265.697 516.125 267.027 516.172 268.38C516.265 269.687 516.405 270.97 516.592 272.23C516.685 272.743 516.405 273 515.752 273H511.062ZM553.968 273.84C552.335 273.84 550.818 273.747 549.418 273.56C548.018 273.373 546.548 273.163 545.008 272.93C543.515 272.65 541.811 272.463 539.898 272.37V225.96C539.898 225.447 540.155 225.19 540.668 225.19H546.128C546.641 225.19 546.898 225.447 546.898 225.96V267.19C547.878 267.33 548.928 267.47 550.048 267.61C551.215 267.75 552.241 267.82 553.128 267.82C556.021 267.82 558.145 267.097 559.498 265.65C560.851 264.157 561.528 261.94 561.528 259V251.44C561.528 248.873 561.085 247.007 560.198 245.84C559.311 244.627 557.958 244.02 556.138 244.02C554.645 244.02 553.105 244.463 551.518 245.35C549.978 246.19 547.995 247.683 545.568 249.83L545.848 243.6C547.995 241.593 550.048 240.147 552.008 239.26C553.968 238.327 556.021 237.86 558.168 237.86C561.575 237.86 564.141 238.91 565.868 241.01C567.641 243.11 568.528 246.307 568.528 250.6V259.63C568.528 264.343 567.315 267.89 564.888 270.27C562.508 272.65 558.868 273.84 553.968 273.84ZM603.044 273.84C598.657 273.84 595.391 272.93 593.244 271.11C591.097 269.243 590.071 266.443 590.164 262.71C590.164 262.243 590.421 262.01 590.934 262.01H596.324C596.744 262.01 596.954 262.243 596.954 262.71C596.954 264.623 597.444 266.023 598.424 266.91C599.404 267.75 600.967 268.17 603.114 268.17C605.214 268.17 606.777 267.82 607.804 267.12C608.877 266.42 609.414 265.393 609.414 264.04C609.414 263.013 609.087 262.173 608.434 261.52C607.827 260.867 606.847 260.237 605.494 259.63L597.514 256.27C594.994 255.243 593.197 254.053 592.124 252.7C591.097 251.3 590.584 249.503 590.584 247.31C590.584 244.183 591.587 241.827 593.594 240.24C595.601 238.653 598.634 237.86 602.694 237.86C606.894 237.86 610.091 238.7 612.284 240.38C614.524 242.06 615.644 244.463 615.644 247.59C615.644 248.057 615.387 248.29 614.874 248.29H609.484C609.251 248.29 609.064 248.197 608.924 248.01C608.784 247.823 608.714 247.543 608.714 247.17C608.714 246.003 608.201 245.117 607.174 244.51C606.194 243.857 604.794 243.53 602.974 243.53C601.154 243.53 599.801 243.857 598.914 244.51C598.027 245.117 597.584 246.05 597.584 247.31C597.584 248.243 597.841 248.967 598.354 249.48C598.867 249.947 599.894 250.53 601.434 251.23L609.414 254.52C611.887 255.547 613.661 256.783 614.734 258.23C615.854 259.63 616.414 261.45 616.414 263.69C616.414 266.957 615.271 269.477 612.984 271.25C610.697 272.977 607.384 273.84 603.044 273.84ZM651.048 273.84C648.482 273.84 646.452 273.443 644.958 272.65C643.465 271.81 642.368 270.55 641.668 268.87C641.015 267.143 640.688 264.997 640.688 262.43V244.65H635.368C634.902 244.65 634.668 244.393 634.668 243.88V239.47C634.668 238.957 634.902 238.7 635.368 238.7H640.898L641.738 230.3C641.785 229.833 642.065 229.6 642.578 229.6H646.848C647.362 229.6 647.618 229.833 647.618 230.3L647.688 238.7H657.698C658.212 238.7 658.468 238.957 658.468 239.47V243.88C658.468 244.393 658.212 244.65 657.698 244.65H647.688V262.15C647.688 264.203 648.038 265.673 648.738 266.56C649.485 267.4 650.745 267.82 652.518 267.82C653.405 267.82 654.292 267.727 655.178 267.54C656.112 267.307 656.928 267.027 657.628 266.7C657.908 266.607 658.118 266.63 658.258 266.77C658.445 266.863 658.538 267.027 658.538 267.26V271.81C658.538 272.23 658.352 272.51 657.978 272.65C657.092 272.977 656.065 273.257 654.898 273.49C653.778 273.723 652.495 273.84 651.048 273.84ZM699.399 273C699.119 273 698.909 272.907 698.769 272.72C698.675 272.533 698.582 272.3 698.489 272.02C698.442 271.6 698.325 270.807 698.139 269.64C697.999 268.473 697.905 267.377 697.859 266.35L697.509 263.62V249.69C697.509 247.497 697.065 245.957 696.179 245.07C695.339 244.137 693.845 243.67 691.699 243.67C687.779 243.67 685.842 245.047 685.889 247.8C685.889 248.313 685.655 248.57 685.189 248.57H679.799C679.285 248.57 679.005 248.15 678.959 247.31C678.725 244.417 679.775 242.13 682.109 240.45C684.442 238.723 687.709 237.86 691.909 237.86C696.202 237.86 699.375 238.84 701.429 240.8C703.482 242.713 704.509 245.653 704.509 249.62V264.39C704.509 265.977 704.555 267.423 704.649 268.73C704.742 270.037 704.859 271.18 704.999 272.16C705.092 272.72 704.835 273 704.229 273H699.399ZM686.029 273.84C683.275 273.84 681.175 273.023 679.729 271.39C678.282 269.71 677.559 267.307 677.559 264.18C677.559 261.753 678.025 259.77 678.959 258.23C679.892 256.69 681.409 255.5 683.509 254.66C685.655 253.82 688.502 253.26 692.049 252.98L698.629 252.42L698.559 257.18L692.259 257.74C689.319 257.973 687.265 258.51 686.099 259.35C684.979 260.19 684.419 261.59 684.419 263.55C684.419 265.043 684.722 266.163 685.329 266.91C685.935 267.657 686.869 268.03 688.129 268.03C689.575 268.03 691.092 267.54 692.679 266.56C694.265 265.58 696.319 263.783 698.839 261.17L698.979 266.56C697.392 268.24 695.899 269.617 694.499 270.69C693.145 271.763 691.769 272.557 690.369 273.07C689.015 273.583 687.569 273.84 686.029 273.84ZM751.27 273C750.757 273 750.5 272.743 750.5 272.23V250.25C750.5 248.103 750.057 246.54 749.17 245.56C748.33 244.533 747 244.02 745.18 244.02C743.453 244.02 741.75 244.533 740.07 245.56C738.39 246.54 736.383 248.197 734.05 250.53L733.91 244.86C735.403 243.273 736.85 241.967 738.25 240.94C739.65 239.913 741.073 239.143 742.52 238.63C744.013 238.117 745.577 237.86 747.21 237.86C750.57 237.86 753.113 238.84 754.84 240.8C756.613 242.713 757.5 245.607 757.5 249.48V272.23C757.5 272.743 757.267 273 756.8 273H751.27ZM729.08 273C728.567 273 728.31 272.743 728.31 272.23V247.38C728.31 246.073 728.24 244.697 728.1 243.25C728.007 241.757 727.913 240.567 727.82 239.68C727.727 239.027 727.983 238.7 728.59 238.7H733.56C733.84 238.7 734.027 238.747 734.12 238.84C734.26 238.933 734.353 239.12 734.4 239.4C734.493 239.82 734.587 240.403 734.68 241.15C734.773 241.897 734.867 242.69 734.96 243.53C735.053 244.37 735.1 245.093 735.1 245.7L735.31 247.94V272.23C735.31 272.743 735.053 273 734.54 273H729.08ZM795.135 273.84C790.328 273.84 786.665 272.65 784.145 270.27C781.625 267.89 780.365 264.483 780.365 260.05V251.72C780.365 247.24 781.648 243.81 784.215 241.43C786.782 239.05 790.445 237.86 795.205 237.86C798.145 237.86 800.642 238.327 802.695 239.26C804.748 240.147 806.312 241.383 807.385 242.97C808.505 244.557 809.042 246.4 808.995 248.5C808.948 249.527 808.692 250.04 808.225 250.04H802.835C802.602 250.04 802.415 249.947 802.275 249.76C802.182 249.573 802.135 249.293 802.135 248.92C802.135 247.333 801.505 246.12 800.245 245.28C799.032 244.393 797.375 243.95 795.275 243.95C792.615 243.95 790.632 244.627 789.325 245.98C788.018 247.333 787.365 249.457 787.365 252.35V259.35C787.365 262.197 788.018 264.32 789.325 265.72C790.632 267.073 792.592 267.75 795.205 267.75C797.352 267.75 799.032 267.283 800.245 266.35C801.458 265.417 802.065 264.25 802.065 262.85C802.065 262.103 802.298 261.73 802.765 261.73H808.155C808.622 261.73 808.878 261.963 808.925 262.43C808.972 265.93 807.805 268.707 805.425 270.76C803.092 272.813 799.662 273.84 795.135 273.84ZM845.085 273.84C840.325 273.84 836.709 272.767 834.235 270.62C831.809 268.473 830.595 265.277 830.595 261.03V251.72C830.595 247.193 831.809 243.763 834.235 241.43C836.662 239.05 840.255 237.86 845.015 237.86C849.729 237.86 853.299 239.003 855.725 241.29C858.152 243.577 859.365 246.913 859.365 251.3V256.76C859.365 257.273 859.132 257.53 858.665 257.53H837.595V259.77C837.595 262.617 838.202 264.693 839.415 266C840.629 267.307 842.589 267.96 845.295 267.96C847.349 267.96 848.935 267.633 850.055 266.98C851.175 266.327 851.735 265.323 851.735 263.97C851.735 263.457 852.015 263.2 852.575 263.2H857.965C858.385 263.2 858.642 263.433 858.735 263.9C858.922 267.027 857.802 269.477 855.375 271.25C852.949 272.977 849.519 273.84 845.085 273.84ZM837.595 252.21H852.435V251.86C852.435 249.06 851.829 247.007 850.615 245.7C849.402 244.393 847.559 243.74 845.085 243.74C842.565 243.74 840.675 244.417 839.415 245.77C838.202 247.123 837.595 249.153 837.595 251.86V252.21ZM435.37 357C434.857 357 434.6 356.743 434.6 356.23V311.92C434.6 311.407 434.857 311.15 435.37 311.15H461.13C461.597 311.15 461.83 311.407 461.83 311.92V316.68C461.83 317.193 461.597 317.45 461.13 317.45H441.67V330.75H459.45C459.917 330.75 460.15 330.983 460.15 331.45V336C460.15 336.513 459.917 336.77 459.45 336.77H441.67V350.7H461.13C461.597 350.7 461.83 350.957 461.83 351.47V356.23C461.83 356.743 461.597 357 461.13 357H435.37ZM481.789 357C481.509 357 481.299 356.907 481.159 356.72C481.066 356.533 481.136 356.323 481.369 356.09L493.269 339.36L482.139 323.61C481.953 323.377 481.906 323.167 481.999 322.98C482.093 322.793 482.303 322.7 482.629 322.7H489.139C489.513 322.7 489.793 322.863 489.979 323.19L494.459 329.7C494.973 330.493 495.509 331.333 496.069 332.22C496.629 333.107 497.143 333.947 497.609 334.74H497.679C498.286 333.853 498.893 332.967 499.499 332.08C500.106 331.147 500.689 330.237 501.249 329.35L505.449 323.19C505.683 322.863 505.986 322.7 506.359 322.7H512.519C512.846 322.7 513.056 322.793 513.149 322.98C513.243 323.167 513.196 323.377 513.009 323.61L501.879 339.15L513.989 356.09C514.176 356.323 514.223 356.533 514.129 356.72C514.036 356.907 513.826 357 513.499 357H506.989C506.616 357 506.336 356.837 506.149 356.51L501.879 350.42C501.179 349.347 500.456 348.273 499.709 347.2C499.009 346.08 498.286 344.983 497.539 343.91H497.469C496.816 344.983 496.139 346.08 495.439 347.2C494.739 348.273 494.039 349.347 493.339 350.42L489.139 356.51C489.046 356.743 488.906 356.883 488.719 356.93C488.579 356.977 488.416 357 488.229 357H481.789ZM545.897 357.84C541.09 357.84 537.427 356.65 534.907 354.27C532.387 351.89 531.127 348.483 531.127 344.05V335.72C531.127 331.24 532.41 327.81 534.977 325.43C537.543 323.05 541.207 321.86 545.967 321.86C548.907 321.86 551.403 322.327 553.457 323.26C555.51 324.147 557.073 325.383 558.147 326.97C559.267 328.557 559.803 330.4 559.757 332.5C559.71 333.527 559.453 334.04 558.987 334.04H553.597C553.363 334.04 553.177 333.947 553.037 333.76C552.943 333.573 552.897 333.293 552.897 332.92C552.897 331.333 552.267 330.12 551.007 329.28C549.793 328.393 548.137 327.95 546.037 327.95C543.377 327.95 541.393 328.627 540.087 329.98C538.78 331.333 538.127 333.457 538.127 336.35V343.35C538.127 346.197 538.78 348.32 540.087 349.72C541.393 351.073 543.353 351.75 545.967 351.75C548.113 351.75 549.793 351.283 551.007 350.35C552.22 349.417 552.827 348.25 552.827 346.85C552.827 346.103 553.06 345.73 553.527 345.73H558.917C559.383 345.73 559.64 345.963 559.687 346.43C559.733 349.93 558.567 352.707 556.187 354.76C553.853 356.813 550.423 357.84 545.897 357.84ZM605.501 357C604.987 357 604.731 356.743 604.731 356.23V334.25C604.731 332.103 604.287 330.54 603.401 329.56C602.561 328.533 601.254 328.02 599.481 328.02C597.707 328.02 595.911 328.557 594.091 329.63C592.317 330.703 590.427 332.337 588.421 334.53L588.351 328.72C589.797 327.18 591.197 325.92 592.551 324.94C593.951 323.913 595.374 323.143 596.821 322.63C598.267 322.117 599.831 321.86 601.511 321.86C604.871 321.86 607.414 322.84 609.141 324.8C610.867 326.713 611.731 329.607 611.731 333.48V356.23C611.731 356.743 611.497 357 611.031 357H605.501ZM583.311 357C582.797 357 582.541 356.743 582.541 356.23V309.96C582.541 309.447 582.797 309.19 583.311 309.19H588.771C589.284 309.19 589.541 309.447 589.541 309.96V356.23C589.541 356.743 589.284 357 588.771 357H583.311ZM655.525 357C655.245 357 655.035 356.907 654.895 356.72C654.802 356.533 654.709 356.3 654.615 356.02C654.569 355.6 654.452 354.807 654.265 353.64C654.125 352.473 654.032 351.377 653.985 350.35L653.635 347.62V333.69C653.635 331.497 653.192 329.957 652.305 329.07C651.465 328.137 649.972 327.67 647.825 327.67C643.905 327.67 641.969 329.047 642.015 331.8C642.015 332.313 641.782 332.57 641.315 332.57H635.925C635.412 332.57 635.132 332.15 635.085 331.31C634.852 328.417 635.902 326.13 638.235 324.45C640.569 322.723 643.835 321.86 648.035 321.86C652.329 321.86 655.502 322.84 657.555 324.8C659.609 326.713 660.635 329.653 660.635 333.62V348.39C660.635 349.977 660.682 351.423 660.775 352.73C660.869 354.037 660.985 355.18 661.125 356.16C661.219 356.72 660.962 357 660.355 357H655.525ZM642.155 357.84C639.402 357.84 637.302 357.023 635.855 355.39C634.409 353.71 633.685 351.307 633.685 348.18C633.685 345.753 634.152 343.77 635.085 342.23C636.019 340.69 637.535 339.5 639.635 338.66C641.782 337.82 644.629 337.26 648.175 336.98L654.755 336.42L654.685 341.18L648.385 341.74C645.445 341.973 643.392 342.51 642.225 343.35C641.105 344.19 640.545 345.59 640.545 347.55C640.545 349.043 640.849 350.163 641.455 350.91C642.062 351.657 642.995 352.03 644.255 352.03C645.702 352.03 647.219 351.54 648.805 350.56C650.392 349.58 652.445 347.783 654.965 345.17L655.105 350.56C653.519 352.24 652.025 353.617 650.625 354.69C649.272 355.763 647.895 356.557 646.495 357.07C645.142 357.583 643.695 357.84 642.155 357.84ZM707.397 357C706.884 357 706.627 356.743 706.627 356.23V334.25C706.627 332.103 706.184 330.54 705.297 329.56C704.457 328.533 703.127 328.02 701.307 328.02C699.58 328.02 697.877 328.533 696.197 329.56C694.517 330.54 692.51 332.197 690.177 334.53L690.037 328.86C691.53 327.273 692.977 325.967 694.377 324.94C695.777 323.913 697.2 323.143 698.647 322.63C700.14 322.117 701.704 321.86 703.337 321.86C706.697 321.86 709.24 322.84 710.967 324.8C712.74 326.713 713.627 329.607 713.627 333.48V356.23C713.627 356.743 713.394 357 712.927 357H707.397ZM685.207 357C684.694 357 684.437 356.743 684.437 356.23V331.38C684.437 330.073 684.367 328.697 684.227 327.25C684.134 325.757 684.04 324.567 683.947 323.68C683.854 323.027 684.11 322.7 684.717 322.7H689.687C689.967 322.7 690.154 322.747 690.247 322.84C690.387 322.933 690.48 323.12 690.527 323.4C690.62 323.82 690.714 324.403 690.807 325.15C690.9 325.897 690.994 326.69 691.087 327.53C691.18 328.37 691.227 329.093 691.227 329.7L691.437 331.94V356.23C691.437 356.743 691.18 357 690.667 357H685.207ZM750.352 370.79C744.799 370.79 740.785 370.043 738.312 368.55C735.885 367.103 734.672 364.91 734.672 361.97C734.672 360.15 735.115 358.517 736.002 357.07C736.889 355.67 738.265 354.527 740.132 353.64L745.522 355.6C744.262 355.973 743.329 356.603 742.722 357.49C742.115 358.377 741.812 359.427 741.812 360.64C741.812 362.32 742.465 363.487 743.772 364.14C745.079 364.793 747.365 365.12 750.632 365.12C754.132 365.12 756.535 364.77 757.842 364.07C759.149 363.417 759.802 362.203 759.802 360.43C759.802 359.17 759.499 358.237 758.892 357.63C758.332 357.07 757.375 356.767 756.022 356.72L743.142 355.95C741.555 355.857 740.155 355.297 738.942 354.27C737.775 353.243 737.192 351.657 737.192 349.51C737.192 348.53 737.332 347.643 737.612 346.85C737.939 346.057 738.429 345.31 739.082 344.61C739.782 343.863 740.715 343.093 741.882 342.3L746.222 344.54C745.195 344.913 744.472 345.403 744.052 346.01C743.632 346.57 743.422 347.2 743.422 347.9C743.422 348.647 743.679 349.183 744.192 349.51C744.705 349.837 745.499 350.047 746.572 350.14L758.052 350.84C760.992 351.027 763.162 351.937 764.562 353.57C766.009 355.157 766.732 357.49 766.732 360.57C766.732 364.163 765.425 366.753 762.812 368.34C760.199 369.973 756.045 370.79 750.352 370.79ZM750.912 345.87C746.432 345.87 743.119 344.89 740.972 342.93C738.825 340.97 737.752 337.96 737.752 333.9C737.752 329.84 738.825 326.83 740.972 324.87C743.165 322.863 746.549 321.86 751.122 321.86C755.555 321.86 758.822 322.863 760.922 324.87C763.069 326.83 764.142 329.863 764.142 333.97C764.142 338.03 763.069 341.04 760.922 343C758.822 344.913 755.485 345.87 750.912 345.87ZM750.912 340.13C753.339 340.13 754.995 339.663 755.882 338.73C756.815 337.797 757.282 336.21 757.282 333.97C757.282 331.637 756.815 330.003 755.882 329.07C754.949 328.09 753.292 327.6 750.912 327.6C748.579 327.6 746.945 328.09 746.012 329.07C745.079 330.003 744.612 331.637 744.612 333.97C744.612 336.21 745.079 337.797 746.012 338.73C746.945 339.663 748.579 340.13 750.912 340.13ZM759.802 325.78L754.412 323.61C754.599 321.51 754.809 319.737 755.042 318.29C755.275 316.797 755.509 315.537 755.742 314.51C755.882 313.95 756.162 313.67 756.582 313.67H761.552C762.112 313.67 762.299 313.927 762.112 314.44C761.645 315.933 761.249 317.52 760.922 319.2C760.595 320.833 760.222 323.027 759.802 325.78ZM801.144 357.84C796.384 357.84 792.767 356.767 790.294 354.62C787.867 352.473 786.654 349.277 786.654 345.03V335.72C786.654 331.193 787.867 327.763 790.294 325.43C792.721 323.05 796.314 321.86 801.074 321.86C805.787 321.86 809.357 323.003 811.784 325.29C814.211 327.577 815.424 330.913 815.424 335.3V340.76C815.424 341.273 815.191 341.53 814.724 341.53H793.654V343.77C793.654 346.617 794.261 348.693 795.474 350C796.687 351.307 798.647 351.96 801.354 351.96C803.407 351.96 804.994 351.633 806.114 350.98C807.234 350.327 807.794 349.323 807.794 347.97C807.794 347.457 808.074 347.2 808.634 347.2H814.024C814.444 347.2 814.701 347.433 814.794 347.9C814.981 351.027 813.861 353.477 811.434 355.25C809.007 356.977 805.577 357.84 801.144 357.84ZM793.654 336.21H808.494V335.86C808.494 333.06 807.887 331.007 806.674 329.7C805.461 328.393 803.617 327.74 801.144 327.74C798.624 327.74 796.734 328.417 795.474 329.77C794.261 331.123 793.654 333.153 793.654 335.86V336.21Z" fill="white"/>
<path fill-rule="evenodd" clip-rule="evenodd" d="M344.205 357.112H207.266C206.628 356.768 205.956 356.489 205.262 356.28C177.439 350.715 157.395 330.79 153.331 302.774C152.149 294.651 152.278 286.335 152.408 278.023C152.464 274.433 152.52 270.844 152.471 267.272C152.416 263.563 152.434 259.854 152.452 256.094V256.093C152.462 254.194 152.471 252.281 152.471 250.349H216.611V292.569H292.576V216.156H63.3259C36.6923 216.156 12.2461 198.629 3.59709 173.313C2.70152 170.683 1.9103 168.019 1.11855 165.352L1.11844 165.352C0.761243 164.149 0.403935 162.945 0.0368874 161.745V12.9444C4.42091 3.1238 11.935 -0.107135 22.625 0.00269376C54.3358 0.329609 86.0515 0.277154 117.765 0.224702C129.557 0.2052 141.348 0.185698 153.139 0.185698C184.257 0.185698 212.447 24.8424 215.375 55.7868C216.29 65.4498 216.183 75.2129 216.076 84.9741C216.028 89.3768 215.98 93.7792 216.025 98.1717V106.802H151.482V64.7012H64.5341V151.823H70.7395H292.988C296.48 151.825 299.967 152.078 303.422 152.583C333.305 156.958 356.964 184.351 356.954 214.472C356.954 256.006 356.97 297.536 357 339.064C357 344.455 355.234 348.949 351.317 352.445C349.868 353.754 348.154 354.759 346.442 355.762L346.441 355.762L346.44 355.763C345.687 356.204 344.935 356.646 344.205 357.112ZM0.0366455 250.299H64.1037V292.693H106.873V357.117H12.8134C7.08373 354.608 2.50903 350.033 0 344.303L0.0366455 250.299ZM292.823 106.926H356.954V101.947V18.4953C356.954 7.51238 349.632 0.19043 338.713 0.19043H253.897C252.881 0.19043 251.866 0.252081 250.841 0.31429C250.388 0.341756 249.934 0.369331 249.477 0.391756V64.4588H292.823V106.926Z" fill="white"/>
</svg>
