<svg width="874" height="100" viewBox="0 0 874 100" fill="none" xmlns="http://www.w3.org/2000/svg">
<path d="M795.254 98.2736C794.678 98.2736 794.294 98.1297 794.103 97.842C793.911 97.4583 793.959 96.9787 794.246 96.4031L824.894 49.7845L796.261 5.89969C795.973 5.32416 795.877 4.8925 795.973 4.60473C796.165 4.22104 796.597 4.02919 797.268 4.02919H811.081C811.848 4.02919 812.424 4.36492 812.808 5.03639L827.628 28.0579C828.683 29.7845 829.786 31.6071 830.937 33.5255C832.088 35.444 833.191 37.2665 834.246 38.9932H834.39C835.445 37.0747 836.549 35.1562 837.7 33.2378C838.947 31.2234 840.146 29.3049 841.297 27.4824L855.685 5.03639C856.165 4.36492 856.788 4.02919 857.556 4.02919H870.793C871.465 4.02919 871.848 4.22104 871.944 4.60473C872.136 4.8925 872.088 5.32416 871.8 5.89969L843.311 49.9284L873.383 96.4031C873.767 96.8827 873.863 97.3144 873.671 97.6981C873.479 98.0818 873.095 98.2736 872.52 98.2736H858.563C857.891 98.2736 857.268 97.9379 856.692 97.2664L841.009 72.8061C839.858 70.9835 838.659 69.0171 837.412 66.9068C836.165 64.7965 834.966 62.7821 833.815 60.8636H833.671C832.52 62.6862 831.321 64.6526 830.074 66.7629C828.923 68.7773 827.724 70.6957 826.477 72.5183L810.793 97.2664C810.314 97.9379 809.69 98.2736 808.923 98.2736H795.254Z" fill="white"/>
<path d="M755.914 99.9995C746.129 99.9995 738.695 97.7933 733.611 93.3808C728.623 88.9683 726.129 82.3976 726.129 73.6686V54.5319C726.129 45.2274 728.623 38.1771 733.611 33.3809C738.599 28.4888 745.985 26.0428 755.77 26.0428C765.458 26.0428 772.796 28.3929 777.784 33.0931C782.772 37.7934 785.266 44.6519 785.266 53.6686V64.8916C785.266 65.9468 784.786 66.4744 783.827 66.4744H740.518V71.0787C740.518 76.93 741.765 81.1986 744.259 83.8844C746.753 86.5703 750.782 87.9132 756.345 87.9132C760.566 87.9132 763.827 87.2417 766.129 85.8988C768.432 84.5559 769.583 82.4935 769.583 79.7118C769.583 78.6566 770.158 78.129 771.309 78.129H782.388C783.252 78.129 783.779 78.6087 783.971 79.5679C784.355 85.9947 782.053 91.0307 777.065 94.6758C772.077 98.2249 765.026 99.9995 755.914 99.9995ZM740.518 55.5391H771.021V54.8197C771.021 49.0643 769.774 44.8437 767.28 42.1579C764.786 39.472 760.997 38.1291 755.914 38.1291C750.734 38.1291 746.849 39.52 744.259 42.3018C741.765 45.0835 740.518 49.2562 740.518 54.8197V55.5391Z" fill="white"/>
<path d="M682.018 99.9995C672.137 99.9995 664.608 97.5534 659.428 92.6614C654.248 87.7693 651.658 80.7669 651.658 71.6542V54.5319C651.658 45.3233 654.296 38.273 659.572 33.3809C664.847 28.4888 672.377 26.0428 682.161 26.0428C688.205 26.0428 693.336 27.002 697.557 28.9205C701.778 30.743 704.991 33.285 707.197 36.5464C709.499 39.8078 710.603 43.5967 710.507 47.9133C710.411 50.0236 709.883 51.0787 708.924 51.0787H697.845C697.365 51.0787 696.982 50.8869 696.694 50.5032C696.502 50.1195 696.406 49.544 696.406 48.7766C696.406 45.5152 695.111 43.0212 692.521 41.2946C690.027 39.472 686.622 38.5608 682.305 38.5608C676.838 38.5608 672.761 39.9516 670.075 42.7334C667.389 45.5152 666.046 49.8797 666.046 55.8269V70.2154C666.046 76.0667 667.389 80.4312 670.075 83.3089C672.761 86.0906 676.79 87.4815 682.161 87.4815C686.574 87.4815 690.027 86.5223 692.521 84.6038C695.015 82.6854 696.262 80.2873 696.262 77.4096C696.262 75.8748 696.742 75.1075 697.701 75.1075H708.78C709.739 75.1075 710.267 75.5871 710.363 76.5463C710.459 83.7405 708.061 89.448 703.169 93.6686C698.372 97.8892 691.322 99.9995 682.018 99.9995Z" fill="white"/>
<path d="M620.631 98.2729C619.575 98.2729 619.048 97.7453 619.048 96.6901V51.5104C619.048 47.0979 618.137 43.8845 616.314 41.8701C614.587 39.7598 611.854 38.7046 608.113 38.7046C604.563 38.7046 601.062 39.7598 597.609 41.8701C594.156 43.8845 590.031 47.2898 585.235 52.0859L584.947 40.4313C588.017 37.1699 590.99 34.484 593.868 32.3737C596.746 30.2634 599.671 28.6807 602.645 27.6255C605.714 26.5704 608.928 26.0428 612.285 26.0428C619.192 26.0428 624.419 28.0572 627.969 32.0859C631.614 36.0188 633.436 41.966 633.436 49.9276V96.6901C633.436 97.7453 632.957 98.2729 631.997 98.2729H620.631ZM575.019 98.2729C573.964 98.2729 573.436 97.7453 573.436 96.6901V45.6111C573.436 42.9253 573.292 40.0955 573.005 37.1219C572.813 34.0524 572.621 31.6063 572.429 29.7838C572.237 28.4409 572.765 27.7694 574.012 27.7694H584.228C584.803 27.7694 585.187 27.8653 585.379 28.0572C585.667 28.249 585.858 28.6327 585.954 29.2083C586.146 30.0716 586.338 31.2706 586.53 32.8054C586.722 34.3401 586.914 35.9708 587.105 37.6974C587.297 39.4241 587.393 40.9109 587.393 42.1579L587.825 46.7622V96.6901C587.825 97.7453 587.297 98.2729 586.242 98.2729H575.019Z" fill="white"/>
<path d="M542.785 98.2729C542.21 98.2729 541.778 98.081 541.491 97.6973C541.299 97.3136 541.107 96.834 540.915 96.2585C540.819 95.3952 540.579 93.7645 540.196 91.3664C539.908 88.9683 539.716 86.7141 539.62 84.6038L538.901 78.9923V50.3593C538.901 45.8509 537.989 42.6855 536.167 40.8629C534.44 38.9444 531.371 37.9852 526.958 37.9852C518.901 37.9852 514.92 40.8149 515.016 46.4744C515.016 47.5296 514.536 48.0571 513.577 48.0571H502.498C501.443 48.0571 500.867 47.1938 500.771 45.4672C500.292 39.52 502.45 34.8198 507.246 31.3665C512.042 27.8174 518.757 26.0428 527.39 26.0428C536.215 26.0428 542.738 28.0572 546.958 32.0859C551.179 36.0188 553.289 42.0619 553.289 50.2154V80.5751C553.289 83.8365 553.385 86.8101 553.577 89.4959C553.769 92.1818 554.008 94.5319 554.296 96.5463C554.488 97.6973 553.961 98.2729 552.714 98.2729H542.785ZM515.303 99.9995C509.644 99.9995 505.328 98.3208 502.354 94.9635C499.38 91.5103 497.893 86.5703 497.893 80.1434C497.893 75.1554 498.853 71.0787 500.771 67.9132C502.69 64.7478 505.807 62.3017 510.124 60.5751C514.536 58.8485 520.387 57.6974 527.678 57.1219L541.203 55.9708L541.059 65.755L528.109 66.906C522.066 67.3856 517.845 68.4888 515.447 70.2154C513.145 71.942 511.994 74.8197 511.994 78.8485C511.994 81.918 512.618 84.2201 513.865 85.7549C515.112 87.2897 517.03 88.0571 519.62 88.0571C522.594 88.0571 525.711 87.0499 528.973 85.0355C532.234 83.0211 536.455 79.3281 541.634 73.9564L541.922 85.0355C538.661 88.4887 535.591 91.3185 532.714 93.5247C529.932 95.7309 527.102 97.3616 524.224 98.4168C521.443 99.4719 518.469 99.9995 515.303 99.9995Z" fill="white"/>
<path d="M472.179 99.9993C466.903 99.9993 462.731 99.184 459.661 97.5533C456.592 95.8266 454.337 93.2367 452.898 89.7835C451.556 86.2343 450.884 81.8219 450.884 76.5461V39.9994H439.949C438.99 39.9994 438.51 39.4718 438.51 38.4167V29.3519C438.51 28.2968 438.99 27.7692 439.949 27.7692H451.316L453.042 10.5031C453.138 9.54383 453.714 9.06422 454.769 9.06422H463.546C464.601 9.06422 465.129 9.54383 465.129 10.5031L465.273 27.7692H485.848C486.903 27.7692 487.431 28.2968 487.431 29.3519V38.4167C487.431 39.4718 486.903 39.9994 485.848 39.9994H465.273V75.9706C465.273 80.1912 465.992 83.2128 467.431 85.0353C468.966 86.7619 471.556 87.6252 475.201 87.6252C477.023 87.6252 478.846 87.4334 480.668 87.0497C482.587 86.5701 484.265 85.9945 485.704 85.3231C486.28 85.1312 486.711 85.1792 486.999 85.467C487.383 85.6588 487.575 85.9945 487.575 86.4741V95.8266C487.575 96.6899 487.191 97.2655 486.424 97.5533C484.601 98.2247 482.491 98.8003 480.093 99.2799C477.791 99.7595 475.153 99.9993 472.179 99.9993Z" fill="white"/>
<path d="M402.284 99.9995C393.267 99.9995 386.552 98.129 382.14 94.388C377.727 90.5511 375.617 84.7957 375.809 77.1218C375.809 76.1626 376.337 75.683 377.392 75.683H388.471C389.334 75.683 389.766 76.1626 389.766 77.1218C389.766 81.0547 390.773 83.9324 392.787 85.7549C394.802 87.4815 398.015 88.3448 402.428 88.3448C406.744 88.3448 409.958 87.6254 412.068 86.1866C414.274 84.7477 415.377 82.6374 415.377 79.8556C415.377 77.7453 414.706 76.0187 413.363 74.6758C412.116 73.3329 410.102 72.0379 407.32 70.7909L390.917 63.8845C385.737 61.7741 382.044 59.3281 379.838 56.5463C377.727 53.6686 376.672 49.9756 376.672 45.4672C376.672 39.0404 378.735 34.1963 382.859 30.9349C386.984 27.6735 393.219 26.0428 401.564 26.0428C410.197 26.0428 416.768 27.7694 421.277 31.2226C425.881 34.6759 428.183 39.6159 428.183 46.0428C428.183 47.002 427.655 47.4816 426.6 47.4816H415.521C415.042 47.4816 414.658 47.2898 414.37 46.9061C414.082 46.5224 413.938 45.9468 413.938 45.1794C413.938 42.7814 412.883 40.9588 410.773 39.7118C408.759 38.3689 405.881 37.6974 402.14 37.6974C398.399 37.6974 395.617 38.3689 393.795 39.7118C391.972 40.9588 391.061 42.8773 391.061 45.4672C391.061 47.3857 391.588 48.8725 392.644 49.9276C393.699 50.8869 395.809 52.0859 398.974 53.5248L415.377 60.2873C420.461 62.3976 424.106 64.9396 426.313 67.9132C428.615 70.7909 429.766 74.5319 429.766 79.1362C429.766 85.8508 427.416 91.0307 422.715 94.6758C418.015 98.2249 411.205 99.9995 402.284 99.9995Z" fill="white"/>
<path d="M330.185 99.9998C326.828 99.9998 323.71 99.808 320.832 99.4243C317.955 99.0406 314.933 98.6089 311.768 98.1293C308.698 97.5538 305.197 97.1701 301.264 96.9782V1.58273C301.264 0.527574 301.792 0 302.847 0H314.07C315.125 0 315.653 0.527574 315.653 1.58273V86.3308C317.667 86.6185 319.825 86.9063 322.127 87.1941C324.525 87.4819 326.636 87.6257 328.458 87.6257C334.405 87.6257 338.77 86.1389 341.552 83.1653C344.334 80.0958 345.724 75.5394 345.724 69.4963V53.9567C345.724 48.681 344.813 44.844 342.991 42.446C341.168 39.952 338.386 38.705 334.645 38.705C331.576 38.705 328.41 39.6162 325.149 41.4388C321.983 43.1654 317.907 46.2349 312.919 50.6474L313.494 37.8417C317.907 33.717 322.127 30.7433 326.156 28.9208C330.185 27.0023 334.405 26.0431 338.818 26.0431C345.82 26.0431 351.096 28.2014 354.645 32.5179C358.29 36.8345 360.113 43.4052 360.113 52.2301V70.7912C360.113 80.4795 357.619 87.7696 352.631 92.6617C347.739 97.5538 340.257 99.9998 330.185 99.9998Z" fill="white"/>
<path d="M242.135 100C235.9 100 231.152 97.9856 227.891 93.9569C224.629 89.8322 222.999 83.8849 222.999 76.1152V29.3526C222.999 28.2975 223.526 27.7699 224.581 27.7699H235.804C236.86 27.7699 237.387 28.2975 237.387 29.3526V74.5324C237.387 78.9449 238.155 82.2063 239.689 84.3166C241.224 86.4269 243.622 87.482 246.884 87.482C250.337 87.482 253.742 86.4269 257.099 84.3166C260.553 82.1104 264.677 78.5612 269.473 73.6691V85.7554C266.596 88.729 263.67 91.271 260.696 93.3813C257.723 95.4916 254.701 97.1223 251.632 98.2734C248.562 99.4245 245.397 100 242.135 100ZM270.768 98.2734C270.193 98.2734 269.761 98.1775 269.473 97.9856C269.186 97.6979 268.994 97.3142 268.898 96.8345C268.61 95.012 268.37 93.1415 268.178 91.223C267.987 89.3046 267.843 87.3382 267.747 85.3238L266.74 78.7051V29.3526C266.74 28.2975 267.267 27.7699 268.322 27.7699H279.545C280.6 27.7699 281.128 28.2975 281.128 29.3526V80.5756C281.128 83.2614 281.176 85.9952 281.272 88.777C281.464 91.4628 281.752 94.1007 282.135 96.6907C282.327 97.7458 281.752 98.2734 280.409 98.2734H270.768Z" fill="white"/>
<path d="M170.868 99.9999C163.002 99.9999 156.527 98.8967 151.443 96.6905C146.455 94.3884 142.81 91.2229 140.508 87.1941C138.302 83.0694 137.391 78.2253 137.774 72.6618C137.87 71.0311 138.494 70.2157 139.645 70.2157H150.724C151.875 70.2157 152.45 70.9352 152.45 72.374C152.45 77.6498 154.033 81.4867 157.199 83.8848C160.364 86.2829 165.256 87.4819 171.875 87.4819C178.206 87.4819 182.954 86.3788 186.119 84.1726C189.381 81.9663 191.012 78.609 191.012 74.1006C191.012 71.8944 190.628 70.0239 189.86 68.4891C189.189 66.8584 187.942 65.4196 186.119 64.1726C184.297 62.9256 181.899 61.6786 178.925 60.4316L157.774 51.6546C153.266 49.7362 149.621 47.6259 146.839 45.3237C144.153 43.0215 142.187 40.3837 140.94 37.4101C139.789 34.4364 139.213 31.0312 139.213 27.1942C139.309 19.1367 141.995 12.9976 147.271 8.77701C152.642 4.55639 160.46 2.44609 170.724 2.44609C177.822 2.44609 183.913 3.45328 188.997 5.46766C194.177 7.48205 198.014 10.4557 200.508 14.3885C203.098 18.3214 204.153 23.1655 203.673 28.9209C203.482 30.6475 202.906 31.5108 201.947 31.5108H190.724C190.244 31.5108 189.86 31.3189 189.573 30.9352C189.381 30.5515 189.333 29.8801 189.429 28.9209C189.717 24.5084 188.182 21.0552 184.825 18.5612C181.467 16.0672 176.671 14.8202 170.436 14.8202C164.968 14.8202 160.844 15.8274 158.062 17.8417C155.28 19.7602 153.841 22.6859 153.745 26.6187C153.745 28.729 154.129 30.5515 154.896 32.0863C155.664 33.6211 156.959 35.0599 158.781 36.4029C160.604 37.7458 163.098 39.0887 166.263 40.4316L187.127 49.2086C191.635 51.0311 195.232 53.0935 197.918 55.3956C200.7 57.6978 202.666 60.3357 203.817 63.3093C204.968 66.2829 205.544 69.88 205.544 74.1006C205.544 82.2541 202.762 88.633 197.199 93.2373C191.635 97.7457 182.858 99.9999 170.868 99.9999Z" fill="white"/>
<path fill-rule="evenodd" clip-rule="evenodd" d="M96.3847 99.999H58.0389C57.8601 99.9026 57.6721 99.8245 57.4777 99.7658C49.6865 98.2076 44.0738 92.6282 42.9359 84.7832C42.6048 82.5084 42.6412 80.1797 42.6775 77.8524C42.6932 76.8471 42.7089 75.8421 42.695 74.8418C42.6797 73.8032 42.6847 72.7645 42.6898 71.7116V71.7115V71.7106C42.6924 71.179 42.695 70.6438 42.695 70.1031H60.6556V81.9256H81.9275V60.5281H17.7326C10.2746 60.5281 3.42916 55.6203 1.00724 48.5314C0.756462 47.7949 0.534905 47.0488 0.313199 46.3021L0.313175 46.302L0.313163 46.3019C0.21314 45.9651 0.113088 45.6281 0.0103082 45.2919V3.62469C1.23793 0.87473 3.34203 -0.0300002 6.33547 0.000754309C15.2152 0.0922975 24.0962 0.0776089 32.9767 0.0629214C36.2786 0.0574603 39.5804 0.0519993 42.8821 0.0519993C51.5959 0.0519993 59.4895 6.95638 60.3096 15.6215C60.5657 18.3273 60.5358 21.0612 60.5059 23.7945V23.7946V23.7947C60.4924 25.0275 60.4789 26.2602 60.4916 27.4902V29.9069H42.4182V18.1177H18.0709V42.5138H19.8085H82.0428C83.0206 42.5141 83.997 42.5851 84.9645 42.7264C93.3323 43.9515 99.9573 51.6222 99.9548 60.0566C99.9548 71.6869 99.959 83.3164 99.9676 94.945C99.9676 96.4545 99.473 97.7129 98.376 98.6919C97.9703 99.0586 97.4903 99.3399 97.0109 99.6209C96.7999 99.7446 96.5891 99.8682 96.3847 99.999ZM0.0102615 70.0887H17.9504V81.9599H29.9267V100H3.58803C1.98359 99.2974 0.702582 98.0164 0 96.412L0.0102615 70.0887ZM81.9965 29.941H99.9546V28.5468V5.17847C99.9546 2.10302 97.9043 0.0527174 94.8468 0.0527174H71.0966C70.8121 0.0527174 70.5277 0.0699811 70.2407 0.0874012C70.114 0.0950921 69.9867 0.102813 69.8588 0.109093V18.0492H81.9965V29.941Z" fill="white"/>
</svg>
