<svg width="478" height="100" viewBox="0 0 478 100" fill="none" xmlns="http://www.w3.org/2000/svg">
<g clip-path="url(#clip0_161_641)">
<path d="M50 100C77.6142 100 100 77.6142 100 50C100 22.3858 77.6142 0 50 0C22.3858 0 0 22.3858 0 50C0 77.6142 22.3858 100 50 100Z" fill="#005100"/>
<path d="M36.4402 28.3301L31.7002 28.3401L63.5101 71.66L68.2501 71.65L36.4402 28.3301Z" fill="white"/>
<path d="M23.7002 28.3498L28.4302 28.3398L44.1202 50.1898L41.0802 52.5098L25.413 30.6777L25.4102 30.6798L23.7002 28.3498Z" fill="#A3A2A3"/>
<path d="M71.4203 71.6502L71.4201 71.6504L71.41 71.6502L71.4163 71.6453L51.5601 44.2604L54.6001 41.9404L74.4371 69.3125L74.44 69.3102L76.15 71.6402L71.4203 71.6502Z" fill="#A3A2A3"/>
<path d="M68.921 37.4391L68.9294 37.4455L43.1597 71.643L23.8335 71.5003L31.0683 62.5316L56.8323 28.3416L56.8303 28.34L56.8335 28.3401L56.8381 28.334L56.8463 28.3402L76.2303 28.55L68.921 37.4391Z" fill="white"/>
<path fill-rule="evenodd" clip-rule="evenodd" d="M33.1941 13.7085C38.5074 11.4265 44.2343 10.2651 50.0168 10.2969L50.0202 10.2969C72.8784 10.2969 91.3935 28.1002 91.3935 50.0003C91.3935 57.3035 89.3323 64.1511 85.7376 70.0348L86.5418 71.1198C90.4154 64.9551 92.6469 57.7297 92.6469 50.0003C92.6469 27.3609 73.5229 9.04451 50.0219 9.04361C44.0677 9.01111 38.1707 10.2071 32.6995 12.5569C27.2279 14.9068 22.2998 18.3603 18.2234 22.7013L18.2233 22.7014C11.2808 30.0972 7.40943 39.8556 7.39356 49.9993L7.39355 50.0003C7.39355 72.6505 26.5388 90.9569 50.0202 90.9569C61.738 90.9569 72.3758 86.3958 80.0936 79.0123L79.3412 77.9971C71.8472 85.225 61.475 89.7036 50.0202 89.7036C27.1819 89.7036 8.64717 71.9103 8.64689 50.0008C8.66238 40.1752 12.4123 30.723 19.137 23.5593C23.0955 19.3439 27.8809 15.9904 33.1941 13.7085Z" fill="#A3A2A3"/>
</g>
<path d="M396.922 98.2307C396.332 98.2307 395.939 98.0832 395.743 97.7882C395.546 97.3949 395.595 96.9033 395.89 96.3133L427.306 48.5257L397.955 3.54045C397.66 2.95048 397.562 2.50801 397.66 2.21302C397.857 1.8197 398.299 1.62305 398.987 1.62305H413.147C413.933 1.62305 414.523 1.9672 414.917 2.6555L430.108 26.2543C431.19 28.0242 432.321 29.8925 433.501 31.859C434.681 33.8256 435.811 35.6938 436.893 37.4638H437.04C438.122 35.4972 439.253 33.5306 440.433 31.564C441.711 29.4992 442.94 27.5326 444.12 25.6643L458.869 2.6555C459.361 1.9672 460 1.62305 460.787 1.62305H474.356C475.044 1.62305 475.438 1.8197 475.536 2.21302C475.733 2.50801 475.683 2.95048 475.388 3.54045L446.185 48.6732L477.011 96.3133C477.404 96.8049 477.503 97.2474 477.306 97.6407C477.109 98.034 476.716 98.2307 476.126 98.2307H461.819C461.131 98.2307 460.492 97.8866 459.902 97.1983L443.825 72.1245C442.645 70.2563 441.416 68.2405 440.138 66.0773C438.86 63.9141 437.63 61.8492 436.45 59.8826H436.303C435.123 61.7509 433.894 63.7666 432.616 65.9298C431.436 67.9947 430.207 69.9613 428.928 71.8295L412.852 97.1983C412.36 97.8866 411.721 98.2307 410.934 98.2307H396.922Z" fill="#005100"/>
<path d="M317.973 98.2307C316.891 98.2307 316.35 97.6899 316.35 96.6083V3.24546C316.35 2.16385 316.891 1.62305 317.973 1.62305H345.554C360.696 1.62305 372.004 5.16287 379.477 12.2425C386.95 19.2238 390.686 29.8433 390.686 44.1009V52.0655C390.686 67.6014 386.95 79.2042 379.477 86.8738C372.102 94.4451 360.795 98.2307 345.554 98.2307H317.973ZM331.247 85.5463H344.521C355.239 85.5463 363.105 82.8915 368.12 77.5817C373.233 72.1737 375.79 63.8649 375.79 52.6555V43.5109C375.79 33.5798 373.233 26.2543 368.12 21.5345C363.105 16.7165 355.239 14.3074 344.521 14.3074H331.247V85.5463Z" fill="#005100"/>
<path d="M261.437 100C253.374 100 246.737 98.8692 241.525 96.6077C236.412 94.2478 232.676 91.0029 230.316 86.8732C228.054 82.645 227.12 77.6794 227.514 71.9764C227.612 70.3048 228.251 69.469 229.431 69.469H240.788C241.968 69.469 242.558 70.2065 242.558 71.6814C242.558 77.0895 244.18 81.0226 247.425 83.4808C250.67 85.939 255.685 87.1681 262.469 87.1681C268.959 87.1681 273.826 86.0374 277.071 83.7758C280.414 81.5142 282.086 78.0727 282.086 73.4513C282.086 71.1898 281.693 69.2724 280.906 67.6991C280.218 66.0275 278.939 64.5526 277.071 63.2743C275.203 61.9961 272.745 60.7178 269.697 59.4395L248.015 50.4425C243.394 48.4759 239.657 46.3127 236.806 43.9528C234.053 41.5929 232.037 38.8889 230.759 35.8407C229.579 32.7925 228.989 29.3019 228.989 25.3687C229.087 17.1091 231.84 10.8161 237.248 6.48967C242.755 2.16323 250.768 0 261.289 0C268.566 0 274.81 1.03245 280.021 3.09734C285.331 5.16224 289.264 8.21042 291.82 12.2419C294.475 16.2733 295.557 21.2389 295.065 27.1386C294.869 28.9085 294.279 29.7935 293.295 29.7935H281.791C281.299 29.7935 280.906 29.5968 280.611 29.2035C280.414 28.8102 280.365 28.1219 280.464 27.1386C280.759 22.6155 279.185 19.0757 275.744 16.5192C272.302 13.9626 267.386 12.6844 260.994 12.6844C255.39 12.6844 251.162 13.7168 248.31 15.7817C245.459 17.7483 243.984 20.7473 243.885 24.7788C243.885 26.942 244.279 28.8102 245.065 30.3835C245.852 31.9567 247.179 33.4317 249.048 34.8083C250.916 36.1849 253.472 37.5614 256.717 38.938L278.104 47.9351C282.725 49.8033 286.412 51.9174 289.166 54.2773C292.017 56.6372 294.033 59.3412 295.213 62.3894C296.393 65.4375 296.983 69.1249 296.983 73.4513C296.983 81.8092 294.131 88.3481 288.428 93.0678C282.725 97.6893 273.728 100 261.437 100Z" fill="#005100"/>
<path d="M172.726 100.001C160.926 100.001 151.831 97.0016 145.44 91.0036C139.147 84.9072 136 76.0576 136 64.4549V3.24546C136 2.16385 136.541 1.62305 137.622 1.62305H149.274C149.766 1.62305 150.159 1.77054 150.454 2.06553C150.749 2.26218 150.897 2.65549 150.897 3.24546V64.4549C150.897 71.6329 152.716 77.1884 156.354 81.1216C160.09 85.0547 165.548 87.0213 172.726 87.0213C179.904 87.0213 185.312 85.0547 188.95 81.1216C192.686 77.1884 194.555 71.6329 194.555 64.4549V3.24546C194.555 2.16385 195.046 1.62305 196.029 1.62305H207.829C208.911 1.62305 209.451 2.16385 209.451 3.24546V64.6024C209.451 75.8118 206.206 84.5139 199.717 90.7086C193.227 96.9033 184.23 100.001 172.726 100.001Z" fill="#005100"/>
<defs>
<clipPath id="clip0_161_641">
<rect width="100" height="100" fill="white"/>
</clipPath>
</defs>
</svg>
