<svg width="300" height="300" viewBox="0 0 300 300" fill="none" xmlns="http://www.w3.org/2000/svg">
<g clip-path="url(#clip0_161_575)">
<path d="M150 300C232.843 300 300 232.843 300 150C300 67.1573 232.843 0 150 0C67.1573 0 0 67.1573 0 150C0 232.843 67.1573 300 150 300Z" fill="#005100"/>
<path d="M109.32 84.9902L95.1001 85.0202L190.53 214.98L204.75 214.95L109.32 84.9902Z" fill="white"/>
<path d="M71.1001 85.0495L85.2901 85.0195L132.36 150.57L123.24 157.53L76.2386 92.033L76.2301 92.0395L71.1001 85.0495Z" fill="#A3A2A3"/>
<path d="M214.261 214.95L214.26 214.95L214.23 214.95L214.249 214.935L154.68 132.78L163.8 125.82L223.311 207.936L223.32 207.93L228.45 214.92L214.261 214.95Z" fill="#A3A2A3"/>
<path d="M206.763 112.316L206.788 112.335L129.479 214.928L71.5 214.5L93.2045 187.594L170.496 85.0238L170.49 85.0192L170.5 85.0193L170.514 85.001L170.539 85.0197L228.69 85.6492L206.763 112.316Z" fill="white"/>
<path fill-rule="evenodd" clip-rule="evenodd" d="M99.5819 41.1245C115.522 34.2786 132.702 30.7944 150.05 30.8898L150.06 30.8899C218.635 30.8899 274.18 84.2997 274.18 150C274.18 185.176 258.24 216.829 232.914 238.648L235.158 241.676C261.388 219.185 277.94 186.461 277.94 150C277.94 82.0817 220.568 27.1325 150.065 27.1299C132.202 27.0323 114.512 30.6203 98.0981 37.6696C89.0378 41.5609 80.4742 46.4607 72.5629 52.2601L74.8019 55.2808C82.4798 49.6544 90.7899 44.9005 99.5819 41.1245ZM67.0632 61.4321L64.8185 58.4036C61.2704 61.4452 57.8819 64.6822 54.6697 68.1029L54.6695 68.1032C33.842 90.2905 22.2278 119.566 22.1802 149.997L22.1802 150C22.1802 217.951 79.6158 272.87 150.06 272.87C179.089 272.87 205.908 263.539 227.41 247.815L225.172 244.796C204.315 260.047 178.283 269.11 150.06 269.11C81.5451 269.11 25.941 215.73 25.9402 150.001C25.9867 120.525 37.2365 92.1682 57.4106 70.6768C60.4688 67.4202 63.6914 64.3351 67.0632 61.4321Z" fill="#A3A2A3"/>
</g>
<defs>
<clipPath id="clip0_161_575">
<rect width="300" height="300" fill="white"/>
</clipPath>
</defs>
</svg>
