<svg width="478" height="100" viewBox="0 0 478 100" fill="none" xmlns="http://www.w3.org/2000/svg">
<path fill-rule="evenodd" clip-rule="evenodd" d="M100 50C100 77.6143 77.6142 100 50 100C22.3858 100 0 77.6143 0 50C0 22.3857 22.3858 0 50 0C77.6142 0 100 22.3857 100 50ZM33.194 13.7082C38.5072 11.4262 44.2341 10.2648 50.0166 10.2966H50.0201C72.8783 10.2966 91.3934 28.0999 91.3934 49.9999C91.3934 61.7253 86.0801 72.2765 77.6379 79.5495L78.3859 80.5586C87.1295 73.0615 92.6467 62.1537 92.6467 49.9999C92.6467 27.3606 73.5227 9.04419 50.0218 9.04329C44.0675 9.01074 38.1705 10.2068 32.6994 12.5566C29.6793 13.8536 26.8247 15.4869 24.1876 17.42L24.934 18.4269C27.4932 16.5515 30.2633 14.9668 33.194 13.7082ZM22.3544 20.4774L21.6062 19.4679C20.4235 20.4817 19.294 21.5607 18.2232 22.701C11.2807 30.0968 7.40926 39.8552 7.39339 49.9989V49.9999C7.39339 72.6501 26.5386 90.9566 50.0201 90.9566C59.6963 90.9566 68.6361 87.8464 75.8033 82.605L75.0575 81.5988C68.105 86.6825 59.4276 89.7033 50.0201 89.7033C27.1817 89.7033 8.64701 71.91 8.64673 50.0005C8.66221 40.1749 12.4122 30.7227 19.1369 23.5589C20.1563 22.4734 21.2305 21.445 22.3544 20.4774ZM31.7 28.3401L36.44 28.3301L46.5083 42.0415L56.8322 28.3412L56.8301 28.3397L56.8333 28.3398L56.8379 28.3337L56.8462 28.3399L76.2301 28.5497L68.9209 37.4388L68.9292 37.4452L59.9643 49.342L74.4371 69.3122L74.44 69.3099L76.15 71.6399L71.42 71.6501L71.41 71.6499L71.4163 71.645L57.5591 52.5338L55.8643 54.7829L68.2499 71.65L63.5099 71.66L53.46 57.9736L43.1595 71.6427L23.8333 71.5L31.0682 62.5313L39.88 50.8376L25.4128 30.6777L25.41 30.6799L23.7 28.3499L28.43 28.3398L42.2893 47.6403L44.1039 45.2322L31.7 28.3401Z" fill="black"/>
<path d="M396.923 98.2307C396.333 98.2307 395.94 98.0832 395.743 97.7882C395.546 97.3949 395.595 96.9033 395.89 96.3133L427.306 48.5257L397.955 3.54045C397.66 2.95048 397.562 2.50801 397.66 2.21302C397.857 1.8197 398.3 1.62305 398.988 1.62305H413.147C413.934 1.62305 414.524 1.9672 414.917 2.6555L430.109 26.2543C431.19 28.0242 432.321 29.8925 433.501 31.859C434.681 33.8256 435.812 35.6938 436.893 37.4638H437.041C438.123 35.4972 439.253 33.5306 440.433 31.564C441.712 29.4992 442.941 27.5326 444.121 25.6643L458.87 2.6555C459.361 1.9672 460.001 1.62305 460.787 1.62305H474.357C475.045 1.62305 475.438 1.8197 475.536 2.21302C475.733 2.50801 475.684 2.95048 475.389 3.54045L446.185 48.6732L477.011 96.3133C477.405 96.8049 477.503 97.2474 477.306 97.6407C477.11 98.034 476.716 98.2307 476.126 98.2307H461.82C461.131 98.2307 460.492 97.8866 459.902 97.1983L443.826 72.1245C442.646 70.2563 441.417 68.2405 440.138 66.0773C438.86 63.9141 437.631 61.8492 436.451 59.8826H436.303C435.124 61.7509 433.894 63.7666 432.616 65.9298C431.436 67.9947 430.207 69.9613 428.929 71.8295L412.852 97.1983C412.36 97.8866 411.721 98.2307 410.935 98.2307H396.923Z" fill="black"/>
<path d="M317.973 98.2307C316.891 98.2307 316.35 97.6899 316.35 96.6083V3.24546C316.35 2.16385 316.891 1.62305 317.973 1.62305H345.554C360.696 1.62305 372.004 5.16287 379.477 12.2425C386.95 19.2238 390.686 29.8433 390.686 44.1009V52.0655C390.686 67.6014 386.95 79.2042 379.477 86.8738C372.102 94.4451 360.795 98.2307 345.554 98.2307H317.973ZM331.247 85.5463H344.521C355.239 85.5463 363.105 82.8915 368.12 77.5817C373.233 72.1737 375.79 63.8649 375.79 52.6555V43.5109C375.79 33.5798 373.233 26.2543 368.12 21.5345C363.105 16.7165 355.239 14.3074 344.521 14.3074H331.247V85.5463Z" fill="black"/>
<path d="M261.437 100C253.374 100 246.737 98.8692 241.525 96.6077C236.412 94.2478 232.676 91.0029 230.316 86.8732C228.054 82.645 227.12 77.6794 227.514 71.9764C227.612 70.3048 228.251 69.469 229.431 69.469H240.788C241.968 69.469 242.558 70.2065 242.558 71.6814C242.558 77.0895 244.18 81.0226 247.425 83.4808C250.67 85.939 255.685 87.1681 262.469 87.1681C268.959 87.1681 273.826 86.0374 277.071 83.7758C280.414 81.5142 282.086 78.0727 282.086 73.4513C282.086 71.1898 281.693 69.2724 280.906 67.6991C280.218 66.0275 278.939 64.5526 277.071 63.2743C275.203 61.9961 272.745 60.7178 269.697 59.4395L248.015 50.4425C243.394 48.4759 239.657 46.3127 236.806 43.9528C234.053 41.5929 232.037 38.8889 230.759 35.8407C229.579 32.7925 228.989 29.3019 228.989 25.3687C229.087 17.1091 231.84 10.8161 237.248 6.48967C242.755 2.16323 250.768 0 261.289 0C268.566 0 274.81 1.03245 280.021 3.09734C285.331 5.16224 289.264 8.21042 291.82 12.2419C294.475 16.2733 295.557 21.2389 295.065 27.1386C294.869 28.9085 294.279 29.7935 293.295 29.7935H281.791C281.299 29.7935 280.906 29.5968 280.611 29.2035C280.414 28.8102 280.365 28.1219 280.464 27.1386C280.759 22.6155 279.185 19.0757 275.744 16.5192C272.302 13.9626 267.386 12.6844 260.994 12.6844C255.39 12.6844 251.162 13.7168 248.31 15.7817C245.459 17.7483 243.984 20.7473 243.885 24.7788C243.885 26.942 244.279 28.8102 245.065 30.3835C245.852 31.9567 247.179 33.4317 249.048 34.8083C250.916 36.1849 253.472 37.5614 256.717 38.938L278.104 47.9351C282.725 49.8033 286.412 51.9174 289.166 54.2773C292.017 56.6372 294.033 59.3412 295.213 62.3894C296.393 65.4375 296.983 69.1249 296.983 73.4513C296.983 81.8092 294.131 88.3481 288.428 93.0678C282.725 97.6893 273.728 100 261.437 100Z" fill="black"/>
<path d="M172.726 100.001C160.926 100.001 151.831 97.0016 145.44 91.0036C139.147 84.9072 136 76.0576 136 64.4549V3.24546C136 2.16385 136.541 1.62305 137.622 1.62305H149.274C149.766 1.62305 150.159 1.77054 150.454 2.06553C150.749 2.26218 150.897 2.65549 150.897 3.24546V64.4549C150.897 71.6329 152.716 77.1884 156.354 81.1216C160.09 85.0547 165.548 87.0213 172.726 87.0213C179.904 87.0213 185.312 85.0547 188.95 81.1216C192.686 77.1884 194.555 71.6329 194.555 64.4549V3.24546C194.555 2.16385 195.046 1.62305 196.029 1.62305H207.829C208.911 1.62305 209.451 2.16385 209.451 3.24546V64.6024C209.451 75.8118 206.206 84.5139 199.717 90.7086C193.227 96.9033 184.23 100.001 172.726 100.001Z" fill="black"/>
</svg>
