<svg width="300" height="300" viewBox="0 0 300 300" fill="none" xmlns="http://www.w3.org/2000/svg">
<path fill-rule="evenodd" clip-rule="evenodd" d="M300 150C300 232.843 232.843 300 150 300C67.1573 300 0 232.843 0 150C0 67.1572 67.1573 0 150 0C232.843 0 300 67.1572 300 150ZM99.5819 41.1245C115.522 34.2786 132.702 30.7944 150.05 30.8899H150.06C218.635 30.8899 274.18 84.2996 274.18 150C274.18 185.176 258.24 216.829 232.914 238.648L235.158 241.676C261.388 219.185 277.94 186.461 277.94 150C277.94 82.0818 220.568 27.1326 150.065 27.1299C132.203 27.0322 114.512 30.6204 98.0981 37.6697C89.0378 41.5608 80.4742 46.4607 72.5629 52.26L74.8019 55.2808C82.4797 49.6545 90.7899 44.9004 99.5819 41.1245ZM67.0632 61.4321L64.8185 58.4036C61.2704 61.4451 57.882 64.6821 54.6697 68.103C33.842 90.2905 22.2278 119.566 22.1802 149.997V150C22.1802 217.95 79.6158 272.87 150.06 272.87C179.089 272.87 205.908 263.539 227.41 247.815L225.172 244.796C204.315 260.047 178.283 269.11 150.06 269.11C81.5451 269.11 25.941 215.73 25.9402 150.001C25.9866 120.525 37.2365 92.1682 57.4106 70.6768C60.4688 67.4202 63.6914 64.335 67.0632 61.4321ZM95.1001 85.0203L109.32 84.9902L139.525 126.125L170.496 85.0237L170.49 85.019L170.5 85.0193L170.514 85.001L170.539 85.0198L228.69 85.6492L206.763 112.316L206.788 112.335L179.893 148.026L223.311 207.937L223.32 207.93L228.45 214.92L214.26 214.95L214.23 214.95L214.249 214.935L172.677 157.601L167.593 164.349L204.75 214.95L190.53 214.98L160.38 173.921L129.479 214.928L71.5 214.5L93.2045 187.594L119.64 152.513L76.2385 92.033L76.2301 92.0396L71.1001 85.0496L85.2901 85.0195L126.868 142.921L132.312 135.697L95.1001 85.0203Z" fill="black"/>
</svg>
